{"glyphs":{"0":{"ha":857,"x_min":100,"x_max":807,"o":"m 807 356 q 706 607 807 504 q 454 710 604 710 q 203 607 306 710 q 100 356 100 504 q 202 105 100 207 q 454 3 304 3 q 705 105 603 3 q 807 356 807 207 m 632 363 l 635 356 q 583 226 635 279 q 454 174 532 174 q 325 226 378 174 q 272 356 272 279 q 324 485 272 433 q 454 538 376 538 q 581 486 529 538 q 632 363 632 435 z "},"1":{"ha":485,"x_min":99,"x_max":450,"o":"m 99 710 l 100 536 l 278 536 l 278 3 l 450 3 l 450 708 l 99 710 z "},"2":{"ha":671,"x_min":100,"x_max":628,"o":"m 625 -175 l 625 0 l 325 -4 q 558 255 488 158 q 628 418 628 351 q 542 624 628 539 q 332 708 456 708 l 100 708 l 100 536 l 332 536 l 347 538 q 423 509 392 538 q 454 439 454 481 l 456 435 q 354 242 456 360 q 100 3 265 139 l 100 -176 l 625 -175 z "},"3":{"ha":660,"x_min":99,"x_max":621,"o":"m 99 176 l 99 3 l 322 3 q 513 80 432 3 q 611 279 593 157 q 613 297 613 288 q 613 313 613 307 q 553 508 613 422 q 397 625 493 593 q 413 624 408 624 q 553 700 496 624 q 621 886 621 767 l 451 886 q 403 759 451 810 q 283 708 356 708 l 99 708 l 99 536 l 300 538 q 410 485 367 538 q 454 356 454 433 q 410 228 454 279 q 300 176 365 176 l 99 176 z "},"4":{"ha":799,"x_min":100,"x_max":746,"o":"m 746 3 l 746 176 l 307 176 l 599 708 l 397 708 l 100 181 l 100 3 l 456 3 l 456 -176 l 628 -176 l 628 3 l 746 3 z "},"5":{"ha":735,"x_min":96,"x_max":688,"o":"m 269 886 l 96 886 l 96 539 l 332 538 q 463 486 410 538 q 515 356 515 435 q 463 226 515 279 q 332 174 410 174 l 99 174 l 99 3 l 328 3 q 583 104 479 3 q 688 356 688 206 q 583 607 688 504 q 328 710 479 710 l 272 708 l 269 886 z "},"6":{"ha":857,"x_min":99,"x_max":807,"o":"m 635 356 q 583 226 635 279 q 454 174 532 174 q 325 226 378 174 q 272 356 272 279 q 324 485 272 433 q 454 538 376 538 q 583 485 531 538 q 635 356 635 433 m 625 886 l 421 886 q 285 735 353 810 q 154 542 208 643 q 99 356 99 457 q 192 119 99 222 q 449 1 297 1 q 614 42 535 1 q 756 169 704 88 q 807 349 807 251 q 799 428 807 388 q 683 631 772 553 q 471 708 594 708 l 486 708 q 553 810 494 744 q 625 886 569 828 z "},"7":{"ha":735,"x_min":99,"x_max":688,"o":"m 99 710 l 100 536 l 486 536 l 100 -117 l 301 -117 l 688 536 l 688 708 l 99 710 z "},"8":{"ha":857,"x_min":96,"x_max":806,"o":"m 635 358 q 583 226 635 279 q 454 174 532 174 q 325 226 378 174 q 272 356 272 279 q 324 485 272 433 q 454 538 376 538 q 582 486 529 538 q 635 358 635 435 m 806 886 l 632 886 q 567 761 619 806 q 449 717 515 717 q 335 758 383 717 q 269 886 281 806 l 96 886 q 140 744 103 807 q 240 639 178 681 q 134 506 169 582 q 99 349 99 431 q 192 110 99 208 q 454 3 293 3 q 715 122 618 17 q 806 356 806 219 q 770 507 806 432 q 665 639 735 582 q 756 738 721 679 q 806 886 792 797 z "},"9":{"ha":868,"x_min":100,"x_max":815,"o":"m 276 701 q 328 831 276 778 q 457 883 379 883 q 586 831 533 883 q 639 701 639 778 q 587 572 639 624 q 457 519 535 519 q 329 572 382 519 q 276 701 276 625 m 278 172 l 492 172 q 626 322 558 247 q 757 515 703 414 q 801 615 788 563 q 815 722 815 668 q 801 820 815 778 q 763 886 788 863 l 151 886 q 119 833 131 858 q 100 729 100 788 q 113 629 100 688 q 225 428 138 507 q 425 349 313 349 q 376 269 417 315 q 278 172 343 231 z "}," ":{"ha":396,"x_min":0,"x_max":0,"o":""},"!":{"ha":299,"x_min":99,"x_max":272,"o":"m 99 174 l 101 0 l 272 0 l 269 174 l 99 174 m 214 238 l 272 410 l 272 885 l 101 885 l 101 410 l 160 238 l 214 238 z "},"\"":{"ha":549,"x_min":100,"x_max":510,"o":"m 160 711 l 213 711 l 272 771 l 272 883 l 100 883 l 100 771 l 160 711 m 397 711 l 450 711 l 510 771 l 510 883 l 338 883 l 338 771 l 397 711 z "},"#":{"ha":742,"x_min":100,"x_max":694,"o":"m 163 221 l 274 221 l 290 285 l 417 285 l 401 221 l 511 221 l 528 285 l 631 285 l 631 396 l 551 396 l 590 515 l 694 515 l 694 633 l 615 633 l 631 689 l 519 689 l 504 633 l 376 633 l 393 689 l 282 689 l 265 633 l 163 633 l 163 515 l 235 515 l 210 396 l 100 396 l 100 285 l 179 285 l 163 221 m 314 396 l 440 396 l 481 515 l 346 515 l 314 396 z "},"$":{"ha":611,"x_min":99,"x_max":568,"o":"m 99 172 l 269 172 q 360 208 324 172 q 397 296 397 243 q 323 472 397 403 q 176 608 249 542 q 99 885 99 710 l 156 885 l 156 1003 l 210 1003 l 210 885 l 269 885 q 346 628 269 722 q 490 496 418 561 q 568 296 568 417 q 482 85 568 171 q 272 -1 396 -1 l 210 1 l 210 -119 l 156 -119 l 156 1 l 100 -1 l 99 172 z "},"%":{"ha":1174,"x_min":99,"x_max":1103,"o":"m 510 651 q 450 776 510 725 q 304 828 390 828 q 158 776 218 828 q 99 651 99 725 q 158 528 99 579 q 304 476 218 476 q 451 527 392 476 q 510 651 510 578 m 371 654 q 352 613 372 631 q 303 594 332 594 q 253 611 274 594 q 232 654 232 628 q 253 696 232 678 q 303 714 274 714 q 351 697 332 714 q 371 654 371 681 m 1103 179 q 1044 303 1103 253 q 899 353 986 353 q 752 302 811 353 q 693 178 693 251 q 753 53 693 104 q 899 1 813 1 q 1044 52 985 1 q 1103 179 1103 103 m 981 188 q 903 121 969 121 q 850 138 871 121 q 829 179 829 154 q 851 222 829 204 q 903 239 872 239 q 954 224 933 239 q 981 188 975 210 m 338 3 l 511 3 l 869 826 l 697 826 l 338 3 z "},"&":{"ha":921,"x_min":100,"x_max":865,"o":"m 746 886 l 578 886 l 579 174 l 426 174 q 318 226 363 174 q 274 356 274 279 q 317 485 274 433 q 426 538 361 538 l 511 536 l 511 708 l 422 708 q 316 760 360 708 q 272 886 272 813 l 100 886 q 163 703 100 781 q 307 625 226 625 q 160 505 218 597 q 103 289 103 413 q 198 84 115 165 q 400 3 281 3 l 747 3 l 747 536 l 865 536 l 865 708 l 746 710 l 746 886 z "},"'":{"ha":694,"x_min":0,"x_max":0,"o":""},"(":{"ha":489,"x_min":100,"x_max":454,"o":"m 365 -176 l 454 -176 l 454 -4 l 424 1 q 317 109 360 10 q 275 357 275 208 q 317 605 275 504 q 424 714 360 706 l 451 714 l 451 885 l 365 886 q 176 727 253 875 q 100 356 100 579 q 176 -17 100 132 q 365 -176 251 -165 z "},")":{"ha":489,"x_min":103,"x_max":453,"o":"m 176 886 l 103 886 l 103 714 l 157 714 q 246 607 210 707 q 282 356 282 507 q 247 103 282 204 q 157 -4 211 3 l 103 -4 l 103 -176 l 176 -176 q 373 -16 293 -165 q 453 356 453 133 q 374 726 453 578 q 176 886 296 875 z "},"*":{"ha":549,"x_min":99,"x_max":510,"o":"m 99 767 l 100 596 l 272 679 l 99 767 m 390 886 l 218 886 l 307 714 l 390 886 m 507 599 l 510 768 l 325 679 l 507 599 m 217 478 l 390 478 l 307 649 l 217 478 z "},"+":{"ha":671,"x_min":100,"x_max":628,"o":"m 276 63 l 450 61 l 450 239 l 628 239 l 628 411 l 450 411 l 450 590 l 278 590 l 278 411 l 100 411 l 100 239 l 278 239 l 276 63 z "},",":{"ha":299,"x_min":99,"x_max":272,"o":"m 100 174 l 99 6 l 207 6 q 177 -111 207 -61 q 103 -178 147 -161 l 176 -178 q 246 -108 219 -157 q 272 3 272 -58 l 272 174 l 100 174 z "},"-":{"ha":549,"x_min":99,"x_max":510,"o":"m 99 415 l 100 239 l 510 239 l 507 415 l 99 415 z "},".":{"ha":299,"x_min":99,"x_max":272,"o":"m 269 176 l 99 176 l 100 3 l 272 3 l 269 176 z "},"/":{"ha":671,"x_min":103,"x_max":628,"o":"m 103 3 l 269 3 l 628 826 l 456 826 l 103 3 z "},":":{"ha":299,"x_min":99,"x_max":272,"o":"m 99 532 l 100 358 l 272 358 l 272 531 l 99 532 m 99 176 l 100 3 l 272 3 l 269 176 l 99 176 z "},";":{"ha":299,"x_min":99,"x_max":272,"o":"m 99 532 l 100 358 l 272 358 l 272 531 l 99 532 m 100 174 l 100 3 l 207 3 q 176 -111 207 -61 q 99 -175 144 -161 l 169 -175 q 245 -108 218 -156 q 272 3 272 -61 l 272 174 l 100 174 z "},"<":{"ha":549,"x_min":100,"x_max":510,"o":"m 338 3 l 510 3 l 272 269 l 510 531 l 338 531 l 100 269 l 338 3 z "},"=":{"ha":611,"x_min":99,"x_max":568,"o":"m 99 472 l 100 358 l 568 358 l 568 471 l 99 472 m 99 294 l 100 181 l 568 181 l 568 293 l 99 294 z "},">":{"ha":549,"x_min":100,"x_max":510,"o":"m 269 532 l 100 531 l 338 269 l 100 3 l 272 3 l 510 269 l 269 532 z "},"?":{"ha":549,"x_min":99,"x_max":511,"o":"m 99 176 l 100 3 l 272 3 l 269 176 l 99 176 m 100 714 l 153 715 q 285 672 232 715 q 339 564 339 628 q 285 455 339 499 q 153 411 232 411 l 100 411 l 100 239 q 392 333 272 239 q 511 564 511 428 q 393 794 511 701 q 100 888 275 888 l 100 714 z "},"@":{"ha":981,"x_min":96,"x_max":922,"o":"m 624 -114 l 624 76 q 499 49 560 49 q 324 119 399 49 q 258 269 258 188 q 294 382 258 326 q 499 489 367 489 q 568 479 535 489 q 698 399 647 458 q 749 264 749 340 q 718 221 749 221 q 685 267 685 221 q 644 358 685 318 q 540 411 604 399 q 514 413 532 413 q 414 388 458 413 q 347 317 369 363 q 336 265 336 290 q 424 142 336 186 q 506 122 465 122 q 619 186 586 122 q 757 121 669 121 q 803 126 782 121 q 890 176 857 139 q 922 261 922 213 q 848 488 922 388 q 643 629 774 588 q 506 651 576 651 q 326 610 411 651 q 182 494 242 569 q 118 385 140 444 q 96 263 96 325 q 169 44 96 144 q 316 -85 228 -40 q 507 -129 404 -129 q 624 -114 569 -129 m 568 267 q 507 204 568 215 q 463 221 482 204 q 442 261 443 238 q 462 302 444 286 q 507 318 479 318 q 549 303 533 318 q 568 267 565 289 z "},"A":{"ha":860,"x_min":101,"x_max":806,"o":"m 561 243 l 558 415 l 269 415 l 271 540 q 322 665 271 615 q 451 715 374 715 q 581 662 529 715 q 633 524 633 608 l 633 -176 l 806 -175 l 806 536 q 704 785 806 683 q 454 886 603 886 q 204 785 307 886 q 101 536 101 683 l 101 243 l 561 243 z "},"B":{"ha":921,"x_min":99,"x_max":867,"o":"m 99 3 l 271 3 l 269 717 l 561 717 q 653 680 615 717 q 692 593 692 643 q 652 508 692 543 q 553 474 613 474 l 338 475 l 338 299 l 540 300 q 650 257 606 300 q 694 149 694 214 q 650 40 694 85 q 540 -4 606 -4 l 278 -4 l 278 -176 l 517 -176 q 737 -112 643 -176 q 860 58 831 -47 q 867 119 867 93 q 812 277 867 206 q 661 383 757 349 q 812 481 757 417 q 867 625 867 546 q 860 678 867 647 q 735 831 831 772 q 514 890 640 890 l 99 890 l 99 3 z "},"C":{"ha":857,"x_min":99,"x_max":803,"o":"m 803 3 l 803 174 l 536 174 q 347 251 424 174 q 271 444 271 329 q 353 638 271 561 q 567 714 435 714 l 803 714 l 803 886 l 564 886 q 234 758 369 886 q 99 444 99 629 q 235 131 99 258 q 568 3 371 3 l 803 3 z "},"D":{"ha":985,"x_min":99,"x_max":928,"o":"m 99 3 l 271 3 l 269 717 l 474 717 q 669 639 590 717 q 749 444 749 561 q 670 253 749 331 q 474 176 592 176 l 333 176 l 336 3 l 501 3 q 802 131 676 3 q 928 444 928 260 q 802 758 928 629 q 501 886 676 886 l 99 886 l 99 3 z "},"E":{"ha":857,"x_min":97,"x_max":803,"o":"m 803 -175 l 803 0 l 417 -4 q 310 40 353 -4 q 268 149 268 83 q 311 256 268 211 q 417 300 354 300 l 803 299 l 803 471 l 389 471 q 303 506 339 471 q 268 593 268 542 q 304 681 268 644 q 390 717 340 717 l 803 717 l 803 886 l 446 886 q 230 831 324 886 q 106 683 136 775 q 97 625 97 654 q 149 486 97 549 q 296 386 200 424 q 150 278 203 349 q 97 119 97 207 q 106 54 97 88 q 228 -112 133 -47 q 449 -176 324 -176 l 803 -175 z "},"F":{"ha":860,"x_min":99,"x_max":806,"o":"m 99 -175 l 272 -176 l 272 299 l 806 299 l 806 471 l 272 471 l 272 536 q 324 663 272 611 q 450 714 375 714 l 806 714 l 806 886 l 450 886 q 201 785 303 886 q 100 536 100 683 l 99 -175 z "},"G":{"ha":921,"x_min":100,"x_max":863,"o":"m 863 592 l 692 590 l 692 174 l 538 174 q 348 252 425 174 q 271 444 271 331 q 348 637 271 558 q 538 715 425 715 l 863 717 l 863 886 l 538 886 q 227 758 354 886 q 100 444 100 629 q 226 131 100 258 q 538 3 353 3 l 863 3 l 863 592 z "},"H":{"ha":921,"x_min":99,"x_max":865,"o":"m 99 3 l 272 3 l 272 886 l 100 886 l 99 3 m 338 532 l 338 358 l 693 358 l 693 -176 l 865 -176 l 865 886 l 693 886 l 693 531 l 338 532 z "},"I":{"ha":299,"x_min":99,"x_max":272,"o":"m 99 3 l 272 3 l 272 886 l 100 886 l 99 3 z "},"J":{"ha":735,"x_min":100,"x_max":688,"o":"m 688 893 l 514 893 l 515 418 q 445 244 515 314 q 272 174 375 174 l 100 174 l 100 3 l 272 3 q 567 122 446 3 q 688 418 688 242 l 688 893 z "},"K":{"ha":928,"x_min":99,"x_max":869,"o":"m 99 886 l 99 3 l 278 3 l 278 358 l 513 358 q 642 307 589 358 q 694 181 694 256 l 696 -176 l 869 -175 l 869 153 q 818 331 869 251 q 678 444 767 410 q 818 560 767 481 q 869 746 869 640 l 869 886 l 694 886 l 696 718 q 643 585 696 639 q 514 531 590 531 l 279 531 l 279 886 l 99 886 z "},"L":{"ha":671,"x_min":100,"x_max":625,"o":"m 625 3 l 625 176 l 269 176 l 272 886 l 100 886 l 100 3 l 625 3 z "},"M":{"ha":1244,"x_min":99,"x_max":1214,"o":"m 99 3 l 271 3 l 271 714 l 449 714 q 537 680 501 714 q 572 596 572 646 l 574 3 l 742 3 l 742 599 q 657 803 742 719 q 447 886 572 886 l 99 886 l 99 3 m 742 886 l 744 714 l 919 714 q 1006 680 971 714 q 1042 596 1042 646 l 1042 3 l 1214 3 l 1214 596 q 1128 801 1214 717 q 919 886 1042 886 l 742 886 z "},"N":{"ha":857,"x_min":99,"x_max":803,"o":"m 99 3 l 271 3 l 271 714 l 507 714 q 595 680 560 714 q 631 596 631 646 l 628 3 l 803 3 l 803 599 q 718 803 803 719 q 508 886 633 886 l 100 886 l 99 3 z "},"O":{"ha":1047,"x_min":100,"x_max":985,"o":"m 985 444 q 858 759 985 631 q 543 888 731 888 q 228 760 356 888 q 100 444 100 632 q 228 131 100 258 q 543 3 356 3 q 857 131 729 3 q 985 444 985 258 m 808 449 q 733 252 808 331 q 543 174 657 174 q 350 251 428 174 q 272 444 272 329 q 350 638 272 560 q 543 715 428 715 q 732 638 656 715 q 808 449 808 560 z "},"P":{"ha":988,"x_min":99,"x_max":928,"o":"m 99 -175 l 271 -176 l 269 717 l 474 717 q 669 639 590 717 q 749 444 749 561 q 670 252 749 331 q 478 174 592 174 l 336 174 l 336 3 l 481 3 q 799 131 669 3 q 928 444 928 258 q 799 758 928 631 q 481 886 669 886 l 100 886 l 99 -175 z "},"Q":{"ha":1047,"x_min":100,"x_max":985,"o":"m 985 444 q 858 759 985 631 q 543 888 731 888 q 228 760 356 888 q 100 444 100 632 q 228 131 100 258 q 543 3 356 3 q 605 6 582 3 q 656 24 628 10 q 769 -44 726 7 q 813 -175 813 -96 l 974 -175 q 935 -12 974 -81 q 819 107 896 57 q 938 257 892 168 q 985 444 985 346 m 808 449 q 733 252 808 331 q 543 174 657 174 q 350 251 428 174 q 272 444 272 329 q 350 638 272 560 q 543 715 428 715 q 732 638 656 715 q 808 449 808 560 z "},"R":{"ha":921,"x_min":99,"x_max":865,"o":"m 99 3 l 272 3 l 269 717 l 514 717 q 643 672 590 717 q 696 564 696 628 q 644 456 696 500 q 517 411 593 411 l 338 411 l 338 239 l 508 239 q 638 188 583 239 q 692 63 692 136 l 693 -176 l 865 -176 l 865 76 q 813 227 865 161 q 665 321 760 293 l 686 326 q 816 434 768 364 q 864 588 864 504 q 856 656 864 619 q 743 822 829 758 q 539 886 657 886 l 100 886 l 99 3 z "},"S":{"ha":611,"x_min":99,"x_max":568,"o":"m 99 3 l 100 174 l 272 174 q 361 210 325 174 q 397 299 397 246 q 323 475 397 406 q 178 611 249 544 q 100 886 100 713 l 272 886 q 349 632 272 726 q 490 499 419 565 q 568 299 568 419 q 482 89 568 175 q 272 3 396 3 l 99 3 z "},"T":{"ha":921,"x_min":100,"x_max":865,"o":"m 394 3 l 568 3 l 568 714 l 865 714 l 865 886 l 100 886 l 100 714 l 397 714 l 394 3 z "},"U":{"ha":864,"x_min":103,"x_max":810,"o":"m 808 886 l 636 886 l 636 174 l 453 174 q 326 227 378 174 q 274 358 274 281 l 274 364 l 274 886 l 103 886 l 103 358 q 204 106 103 208 q 451 3 306 3 l 483 3 l 810 3 l 808 886 z "},"V":{"ha":1011,"x_min":100,"x_max":953,"o":"m 269 886 l 100 886 l 515 3 l 688 3 q 887 392 821 232 q 953 649 953 553 q 808 843 953 792 q 397 886 688 886 l 397 714 q 628 708 574 714 q 771 603 771 694 q 604 174 771 514 l 269 886 z "},"W":{"ha":1490,"x_min":100,"x_max":1454,"o":"m 922 888 l 925 718 l 1065 715 q 1215 638 1154 715 q 1276 444 1276 560 q 1210 251 1276 329 q 1035 174 1143 174 q 912 227 961 174 q 863 358 863 281 l 863 886 l 692 886 l 690 358 q 632 226 690 279 q 478 174 574 174 q 331 252 390 174 q 272 444 272 331 q 330 633 272 557 q 472 722 388 710 l 621 722 l 625 886 l 479 888 q 244 794 346 888 q 110 543 142 700 q 100 442 100 496 q 156 213 100 318 q 314 47 213 107 q 398 13 354 24 q 485 1 442 1 q 643 43 569 1 q 772 167 717 85 q 906 44 829 88 q 1068 1 983 1 q 1238 47 1154 1 q 1397 209 1339 103 q 1454 443 1454 315 q 1444 543 1454 496 q 1312 791 1414 696 q 1074 886 1210 886 l 922 888 z "},"X":{"ha":921,"x_min":99,"x_max":863,"o":"m 99 890 l 99 717 q 319 632 238 717 q 394 444 394 554 q 321 261 394 336 q 99 176 238 176 l 99 3 q 326 69 238 18 q 481 214 415 119 q 650 60 553 111 q 863 3 738 14 l 863 176 q 642 260 722 176 q 568 446 568 336 q 642 632 568 556 q 863 717 724 717 l 863 890 q 646 833 729 876 q 481 679 551 783 q 322 833 414 781 q 99 890 224 890 z "},"Y":{"ha":1054,"x_min":96,"x_max":993,"o":"m 96 886 l 272 886 l 594 86 l 551 3 l 456 3 l 96 886 m 618 -175 l 456 -176 q 807 582 807 444 q 703 697 807 672 q 397 714 633 714 l 397 886 q 713 878 622 886 q 919 822 857 864 q 993 668 993 772 q 904 352 993 554 q 618 -175 815 150 z "},"Z":{"ha":921,"x_min":99,"x_max":865,"o":"m 99 886 l 100 714 l 651 714 l 100 174 l 100 3 l 865 3 l 865 174 l 301 174 l 865 714 l 865 886 l 99 886 z "},"[":{"ha":365,"x_min":99,"x_max":333,"o":"m 99 -175 l 328 -176 l 328 -122 l 215 -122 l 215 833 l 333 833 l 333 886 l 99 886 l 99 -175 z "},"\\":{"ha":671,"x_min":103,"x_max":631,"o":"m 454 3 l 631 3 l 275 826 l 103 826 l 454 3 z "},"]":{"ha":365,"x_min":103,"x_max":333,"o":"m 333 -175 l 333 886 l 103 886 l 103 833 l 221 833 l 221 -122 l 103 -122 l 103 -176 l 333 -175 z "},"^":{"ha":450,"x_min":99,"x_max":414,"o":"m 165 796 l 99 796 l 257 954 l 414 796 l 347 796 l 260 886 l 165 796 z "},"_":{"ha":861,"x_min":99,"x_max":806,"o":"m 99 39 l 99 0 l 806 0 l 806 39 l 99 39 z "},"`":{"ha":694,"x_min":0,"x_max":0,"o":""},"a":{"ha":857,"x_min":100,"x_max":803,"o":"m 632 3 l 803 3 l 803 713 l 447 713 q 201 608 303 713 q 100 356 100 504 q 200 104 100 206 q 449 3 300 3 l 568 3 l 568 174 l 447 174 q 322 226 374 174 q 271 356 271 279 q 322 485 271 433 q 447 538 372 538 l 633 536 l 632 3 z "},"b":{"ha":857,"x_min":99,"x_max":806,"o":"m 99 886 l 269 886 l 271 174 l 450 174 q 581 226 528 174 q 633 356 633 279 q 581 485 633 432 q 450 538 528 538 l 336 536 l 333 713 l 447 713 q 702 609 599 713 q 806 356 806 506 q 703 104 806 206 q 450 3 600 3 l 100 3 l 99 886 z "},"c":{"ha":671,"x_min":99,"x_max":626,"o":"m 625 3 l 625 176 l 450 176 q 322 228 374 176 q 271 356 271 279 q 322 485 271 433 q 447 538 372 538 l 626 536 l 625 713 l 447 713 q 200 608 301 713 q 99 356 99 504 q 199 105 99 207 q 449 3 300 3 l 625 3 z "},"d":{"ha":861,"x_min":99,"x_max":806,"o":"m 806 886 l 633 886 l 633 174 l 447 174 q 322 226 374 174 q 271 356 271 279 q 321 486 271 433 q 447 539 371 539 l 564 539 l 564 713 l 447 713 q 200 608 301 713 q 99 356 99 504 q 199 105 99 207 q 449 3 300 3 l 806 3 l 806 886 z "},"e":{"ha":857,"x_min":99,"x_max":804,"o":"m 803 3 l 804 174 l 447 174 q 322 226 374 174 q 271 356 271 279 q 322 485 271 433 q 447 538 372 538 l 626 536 l 454 239 l 626 239 l 803 539 l 803 713 l 449 710 q 200 607 301 710 q 99 356 99 504 q 199 105 99 207 q 449 3 300 3 l 803 3 z "},"f":{"ha":549,"x_min":99,"x_max":510,"o":"m 99 3 l 272 3 l 272 299 l 510 299 l 510 471 l 272 471 l 272 596 q 306 680 272 646 q 390 714 340 714 l 510 714 l 510 886 l 390 886 q 184 802 268 886 q 100 596 100 718 l 99 3 z "},"g":{"ha":861,"x_min":100,"x_max":806,"o":"m 806 713 l 417 713 q 192 618 283 713 q 100 386 100 524 q 192 155 100 249 q 419 61 285 61 l 568 61 l 568 233 l 421 233 q 315 277 357 233 q 272 386 272 321 q 315 493 272 449 q 421 538 358 538 l 633 536 l 633 -4 l 278 -4 l 278 -176 l 628 -176 q 754 -125 703 -176 q 806 3 806 -74 l 806 713 z "},"h":{"ha":794,"x_min":99,"x_max":742,"o":"m 99 3 l 269 3 l 271 536 l 449 536 q 536 501 500 536 q 572 418 572 467 l 574 3 l 742 3 l 742 418 q 657 625 742 540 q 447 710 572 710 l 272 708 l 272 886 l 100 886 l 99 3 z "},"i":{"ha":299,"x_min":99,"x_max":272,"o":"m 99 3 l 272 3 l 272 649 l 100 649 l 99 3 m 99 717 l 269 717 l 272 886 l 100 886 l 99 717 z "},"j":{"ha":485,"x_min":100,"x_max":450,"o":"m 276 717 l 447 717 l 450 886 l 278 886 l 276 717 m 447 649 l 278 649 l 278 61 q 260 17 278 35 q 213 -4 242 -1 l 100 -4 l 100 -176 l 213 -176 q 381 -107 311 -176 q 450 61 450 -37 l 447 649 z "},"k":{"ha":799,"x_min":99,"x_max":747,"o":"m 99 3 l 271 3 l 271 358 l 389 358 q 521 307 467 358 q 575 181 575 256 l 575 3 l 747 3 l 747 181 q 704 339 747 267 q 589 447 661 411 q 706 551 664 482 q 747 708 747 621 l 575 708 q 524 582 575 633 q 397 531 472 531 l 272 531 l 272 886 l 100 886 l 99 3 z "},"l":{"ha":299,"x_min":99,"x_max":272,"o":"m 99 3 l 272 3 l 272 886 l 100 886 l 99 3 z "},"m":{"ha":1164,"x_min":99,"x_max":1096,"o":"m 99 3 l 271 3 l 271 536 l 389 536 q 476 502 440 536 q 511 418 511 468 l 511 3 l 682 3 l 682 418 q 597 624 682 539 q 389 708 513 708 l 99 710 l 99 3 m 685 710 l 685 539 l 799 536 q 885 501 850 536 q 919 418 919 467 l 919 3 l 1096 3 l 1096 418 q 1010 624 1096 540 q 801 708 925 708 l 685 710 z "},"n":{"ha":803,"x_min":99,"x_max":749,"o":"m 99 3 l 274 3 l 274 536 l 392 536 q 522 485 468 536 q 575 361 575 435 l 576 3 l 749 3 l 749 361 q 646 607 749 506 q 394 708 543 708 l 99 710 l 99 3 z "},"o":{"ha":857,"x_min":96,"x_max":804,"o":"m 804 356 q 701 607 804 504 q 450 710 599 710 q 199 607 301 710 q 96 356 96 504 q 198 105 96 207 q 450 3 300 3 q 701 104 599 3 q 804 356 804 206 m 628 363 l 632 356 q 580 226 632 278 q 450 174 528 174 q 321 226 374 174 q 268 356 268 279 q 321 485 268 432 q 450 538 374 538 q 577 487 526 538 q 628 363 628 436 z "},"p":{"ha":861,"x_min":99,"x_max":810,"o":"m 99 -175 l 274 -176 l 274 542 l 450 542 q 584 483 531 535 q 638 356 638 431 q 585 226 638 279 q 453 174 532 174 l 339 174 l 339 3 l 453 3 q 706 105 603 3 q 810 356 810 207 q 706 609 810 506 q 450 713 603 713 l 99 713 l 99 -175 z "},"q":{"ha":854,"x_min":96,"x_max":800,"o":"m 628 -175 l 800 -176 l 799 713 l 444 713 q 197 608 299 713 q 96 356 96 504 q 197 105 96 207 q 446 3 297 3 l 564 3 l 564 174 l 444 174 q 319 226 371 174 q 268 356 268 279 q 317 483 268 432 q 444 542 367 535 l 628 542 l 628 -175 z "},"r":{"ha":553,"x_min":99,"x_max":513,"o":"m 99 3 l 275 3 l 275 447 q 301 510 275 485 q 364 536 326 536 l 513 536 l 513 708 l 364 708 q 183 634 257 708 q 99 449 108 560 l 99 3 z "},"s":{"ha":611,"x_min":99,"x_max":568,"o":"m 99 -175 l 100 -4 l 272 -4 q 361 32 325 -4 q 397 121 397 68 q 321 253 397 181 q 178 410 213 356 q 100 708 100 532 l 272 708 q 349 454 272 560 q 490 301 419 378 q 568 121 568 215 q 482 -90 568 -4 q 272 -176 396 -176 l 99 -175 z "},"t":{"ha":611,"x_min":99,"x_max":568,"o":"m 269 890 l 99 890 l 99 301 q 183 90 99 176 q 389 3 267 3 l 567 3 l 567 174 l 389 174 q 306 210 339 174 q 272 299 272 246 l 272 536 l 568 536 l 568 708 l 272 708 l 269 890 z "},"u":{"ha":799,"x_min":103,"x_max":749,"o":"m 749 710 l 575 708 l 575 174 l 393 174 q 310 210 344 174 q 275 299 275 246 l 274 708 l 103 708 l 103 299 q 187 88 103 174 q 393 3 271 3 l 749 3 l 749 710 z "},"v":{"ha":925,"x_min":101,"x_max":867,"o":"m 101 708 l 451 3 l 629 3 q 867 524 867 378 q 756 669 867 629 q 397 708 644 708 l 397 536 q 628 519 561 536 q 696 449 696 501 q 540 150 696 386 l 274 708 l 101 708 z "},"w":{"ha":1385,"x_min":100,"x_max":1333,"o":"m 867 713 l 867 542 l 981 542 q 1112 483 1060 535 q 1164 356 1164 432 q 1111 226 1164 279 q 983 174 1058 174 q 856 226 908 174 q 803 356 803 279 l 803 708 l 632 708 l 629 347 q 576 226 629 278 q 446 174 522 174 q 321 226 372 174 q 269 356 269 279 q 320 483 269 431 q 446 542 371 535 l 549 542 l 549 713 l 446 713 q 228 635 321 713 q 106 422 135 557 q 101 391 103 406 q 100 357 100 376 q 160 153 100 244 q 324 19 219 61 q 425 3 374 3 q 593 53 514 3 q 719 190 672 103 q 841 53 764 103 q 1007 4 918 4 q 1118 24 1060 4 q 1276 154 1219 67 q 1333 356 1333 242 q 1333 399 1333 376 q 1328 428 1329 419 q 1205 635 1301 558 q 978 713 1108 713 l 867 713 z "},"x":{"ha":799,"x_min":99,"x_max":746,"o":"m 99 710 l 99 542 q 282 486 215 542 q 343 361 343 435 q 279 231 343 286 q 99 176 215 176 l 99 3 q 424 167 299 3 q 556 42 476 81 q 746 3 636 3 l 746 176 q 573 226 633 176 q 513 346 513 275 q 571 471 513 415 q 746 546 636 532 l 746 710 q 558 672 640 710 q 421 549 476 633 q 281 669 358 629 q 99 710 203 710 z "},"y":{"ha":928,"x_min":99,"x_max":871,"o":"m 267 711 l 99 713 l 338 3 l 490 3 l 507 24 l 267 711 m 394 -169 l 568 -168 q 871 522 871 364 q 762 670 871 632 q 397 708 653 708 l 397 536 q 563 533 536 536 q 681 436 681 521 q 615 228 681 367 q 394 -169 549 90 z "},"z":{"ha":799,"x_min":99,"x_max":747,"o":"m 99 710 l 100 536 l 521 536 l 100 174 l 100 3 l 747 3 l 747 174 l 314 174 l 747 536 l 747 708 l 99 710 z "},"{":{"ha":493,"x_min":101,"x_max":453,"o":"m 453 -119 q 366 -30 401 -114 q 331 178 331 54 q 264 325 331 265 q 101 385 197 385 q 261 444 196 385 q 335 593 326 504 q 369 794 335 713 q 453 883 403 876 q 286 799 354 883 q 218 593 218 715 q 185 449 218 507 q 101 385 151 392 q 186 322 151 379 q 221 178 221 264 q 288 -34 221 51 q 453 -119 356 -119 z "},"|":{"ha":299,"x_min":99,"x_max":272,"o":"m 99 -114 l 272 -117 l 272 886 l 100 886 l 99 -114 z "},"}":{"ha":493,"x_min":103,"x_max":454,"o":"m 103 -119 q 190 -30 154 -114 q 225 178 225 54 q 292 325 225 265 q 454 385 358 385 q 294 444 360 385 q 221 593 229 504 q 187 794 221 713 q 103 883 153 876 q 269 799 201 883 q 338 593 338 715 q 371 449 338 507 q 454 385 404 392 q 369 322 404 379 q 335 178 335 264 q 267 -34 335 51 q 103 -119 200 -119 z "},"~":{"ha":471,"x_min":99,"x_max":433,"o":"m 99 813 l 136 793 q 181 839 153 839 q 268 792 190 839 q 332 769 304 769 q 381 786 358 769 q 433 853 408 807 l 397 871 q 369 823 385 838 q 336 808 354 808 q 242 856 319 808 q 179 878 204 878 q 137 863 157 878 q 99 813 117 847 z "},"":{"ha":694,"x_min":0,"x_max":0,"o":""},"":{"ha":694,"x_min":0,"x_max":0,"o":""},"‚":{"ha":694,"x_min":0,"x_max":0,"o":""},"ƒ":{"ha":694,"x_min":0,"x_max":0,"o":""},"„":{"ha":694,"x_min":0,"x_max":0,"o":""},"…":{"ha":694,"x_min":0,"x_max":0,"o":""},"†":{"ha":694,"x_min":0,"x_max":0,"o":""},"‡":{"ha":694,"x_min":0,"x_max":0,"o":""},"‰":{"ha":694,"x_min":0,"x_max":0,"o":""},"Š":{"ha":611,"x_min":99,"x_max":568,"o":"m 99 3 l 100 174 l 272 174 q 361 210 325 174 q 397 299 397 246 q 323 475 397 406 q 178 611 249 544 q 100 886 100 713 l 272 886 q 349 632 272 726 q 490 499 419 565 q 568 299 568 419 q 482 89 568 175 q 272 3 396 3 l 99 3 m 156 1229 l 103 1175 l 283 994 l 464 1175 l 410 1229 l 283 1101 l 156 1229 z "},"‹":{"ha":694,"x_min":0,"x_max":0,"o":""},"Œ":{"ha":1306,"x_min":97,"x_max":1251,"o":"m 1251 843 l 907 843 q 772 801 839 843 q 668 697 704 758 q 547 809 608 774 q 425 844 486 844 q 194 690 292 844 q 97 340 97 535 q 197 -19 97 132 q 431 -169 296 -169 q 551 -133 492 -169 q 668 -21 611 -97 q 765 -123 713 -90 q 900 -168 817 -156 l 1251 -168 l 1251 0 l 876 0 q 788 47 818 8 q 757 138 757 85 q 790 233 757 192 q 886 285 824 275 l 1251 285 l 1251 444 l 856 444 q 785 488 811 453 q 760 564 760 522 q 782 635 760 604 q 849 679 804 667 l 1251 679 l 1251 843 m 258 340 q 310 85 258 178 q 424 1 356 1 q 544 92 492 1 q 596 340 596 182 q 542 593 596 497 q 424 679 493 679 q 310 596 356 679 q 258 340 258 503 z "},"‘":{"ha":331,"x_min":103,"x_max":300,"o":"m 103 926 l 169 926 l 300 796 l 233 796 l 103 926 z "},"’":{"ha":299,"x_min":100,"x_max":272,"o":"m 160 711 l 213 711 l 272 771 l 272 883 l 100 883 l 100 771 l 160 711 z "},"“":{"ha":519,"x_min":99,"x_max":482,"o":"m 99 713 l 99 554 l 260 556 l 260 713 l 172 713 q 193 831 172 788 q 260 881 214 875 q 146 829 193 881 q 99 713 99 778 m 321 713 l 321 554 l 481 556 l 482 713 l 400 713 q 417 833 400 792 q 482 881 435 875 q 367 832 413 881 q 321 713 321 783 z "},"”":{"ha":519,"x_min":97,"x_max":483,"o":"m 179 711 l 100 711 l 100 550 l 257 551 l 257 713 q 212 832 263 776 q 97 881 161 888 q 161 833 143 876 q 179 711 179 790 m 401 713 l 324 713 l 324 551 l 483 550 l 482 713 q 447 833 482 793 q 318 881 407 881 q 385 832 364 881 q 401 713 401 792 z "},"•":{"ha":706,"x_min":101,"x_max":661,"o":"m 661 442 q 581 640 661 558 q 382 722 500 722 q 183 641 264 722 q 101 442 101 560 q 183 242 101 324 q 382 161 264 161 q 580 242 499 161 q 661 442 661 324 z "},"–":{"ha":694,"x_min":99,"x_max":682,"o":"m 99 294 l 99 254 l 682 254 l 682 294 l 99 294 z "},"—":{"ha":1389,"x_min":97,"x_max":1306,"o":"m 97 297 l 97 254 l 1306 254 l 1306 297 l 97 297 z "},"™":{"ha":622,"x_min":99,"x_max":578,"o":"m 100 886 l 99 857 l 164 856 l 164 675 l 192 675 l 189 857 l 260 857 l 260 886 l 100 886 m 332 913 l 331 676 l 357 676 l 360 818 l 458 676 l 553 821 l 551 676 l 578 676 l 578 910 l 458 726 l 332 913 z "},"š":{"ha":611,"x_min":99,"x_max":568,"o":"m 99 -175 l 100 -4 l 272 -4 q 361 32 325 -4 q 397 121 397 68 q 321 253 397 181 q 178 410 213 356 q 100 708 100 532 l 272 708 q 349 454 272 560 q 490 301 419 378 q 568 121 568 215 q 482 -90 568 -4 q 272 -176 396 -176 l 99 -175 m 156 1021 l 103 967 l 283 786 l 464 967 l 410 1021 l 283 893 l 156 1021 z "},"›":{"ha":694,"x_min":0,"x_max":0,"o":""},"œ":{"ha":1333,"x_min":97,"x_max":1260,"o":"m 1260 672 l 910 672 q 784 639 843 672 q 682 547 725 606 q 564 641 632 610 q 419 672 496 672 q 197 588 289 672 q 97 340 97 494 q 200 92 97 186 q 428 4 294 4 q 567 35 501 4 q 682 126 633 65 q 780 40 724 69 q 913 3 836 11 l 1258 3 l 1258 164 l 914 161 q 801 219 842 168 q 761 336 761 269 q 799 450 761 401 q 914 510 838 499 l 1047 510 l 936 226 l 1094 226 l 1260 672 m 258 344 q 257 319 257 326 q 303 210 257 247 q 418 172 350 172 q 544 214 493 172 q 603 340 603 261 q 553 465 603 421 q 435 510 504 510 q 313 466 367 510 q 258 344 258 422 z "},"Ÿ":{"ha":1054,"x_min":96,"x_max":993,"o":"m 96 886 l 272 886 l 594 86 l 551 3 l 456 3 l 96 886 m 618 -175 l 456 -176 q 807 582 807 444 q 703 697 807 672 q 397 714 633 714 l 397 886 q 713 878 622 886 q 919 822 857 864 q 993 668 993 772 q 904 352 993 554 q 618 -175 815 150 m 326 1165 l 326 999 l 493 999 l 493 1165 l 326 1165 m 614 1165 l 614 999 l 782 999 l 782 1165 l 614 1165 z "}," ":{"ha":694,"x_min":0,"x_max":0,"o":""},"¡":{"ha":299,"x_min":100,"x_max":272,"o":"m 100 704 l 100 533 l 272 533 l 269 706 l 100 704 m 211 467 l 161 467 l 100 294 l 100 -175 l 269 -175 l 272 297 l 211 467 z "},"¢":{"ha":660,"x_min":97,"x_max":617,"o":"m 372 843 l 372 701 q 165 569 239 669 q 97 357 97 478 q 167 142 97 235 q 375 11 242 40 l 375 -168 l 481 -168 l 481 4 l 617 4 l 617 175 l 417 175 q 304 241 344 189 q 264 358 264 293 q 303 472 264 422 q 417 536 343 522 l 613 536 l 613 706 l 476 706 l 476 840 l 372 843 z "},"£":{"ha":707,"x_min":99,"x_max":660,"o":"m 658 0 l 660 160 l 378 160 l 376 392 l 601 392 l 601 449 l 376 449 l 378 561 q 413 641 382 608 q 490 674 444 674 l 660 674 l 660 839 l 490 838 q 294 758 374 838 q 214 561 214 678 l 213 449 l 99 449 l 99 392 l 213 392 l 214 160 l 101 160 l 101 -4 l 658 0 z "},"¤":{"ha":694,"x_min":0,"x_max":0,"o":""},"¥":{"ha":694,"x_min":0,"x_max":0,"o":""},"¦":{"ha":694,"x_min":0,"x_max":0,"o":""},"§":{"ha":531,"x_min":86,"x_max":493,"o":"m 106 688 l 101 693 q 203 565 101 619 q 390 482 296 524 q 493 376 493 433 q 353 544 493 457 q 214 717 214 631 q 257 797 218 764 q 353 829 296 829 q 451 796 411 829 q 490 714 490 763 q 429 834 490 790 q 285 878 368 878 q 158 817 210 871 q 106 688 106 764 m 86 258 l 93 250 q 138 188 107 215 q 218 150 169 161 q 261 146 239 146 q 386 207 343 146 q 244 374 386 289 q 103 540 103 458 q 203 440 103 485 q 390 368 296 404 q 492 258 492 321 q 436 142 492 189 q 299 94 381 94 q 163 141 221 94 q 86 258 104 188 z "},"©":{"ha":693,"x_min":99,"x_max":642,"o":"m 501 783 l 457 783 q 374 854 436 854 q 304 820 333 854 q 275 724 275 786 q 305 629 275 665 q 374 593 335 593 q 428 615 404 593 q 464 683 453 638 l 504 683 q 458 589 494 622 q 372 556 422 556 q 278 597 317 556 q 235 724 235 643 q 274 847 235 803 q 371 890 314 890 q 449 863 414 890 q 501 783 485 836 m 132 731 q 206 551 132 617 q 371 492 272 492 q 533 550 468 492 q 608 731 608 617 q 535 910 608 843 q 371 969 468 969 q 207 910 275 969 q 132 731 132 843 m 99 731 q 183 528 99 603 q 371 460 260 460 q 557 526 482 460 q 642 731 642 601 q 557 933 642 858 q 371 1001 481 1001 q 183 935 258 1001 q 99 731 99 860 z "},"ª":{"ha":597,"x_min":94,"x_max":554,"o":"m 554 886 l 300 886 q 148 807 201 874 q 94 651 94 740 q 144 500 94 563 q 300 418 200 431 l 381 418 l 381 532 l 315 529 q 235 572 264 536 q 206 654 206 608 q 234 734 206 700 q 314 774 263 768 l 444 774 l 444 418 l 554 418 l 554 886 m 99 354 l 99 244 l 554 244 l 554 354 l 99 354 z "},"«":{"ha":694,"x_min":0,"x_max":0,"o":""},"¬":{"ha":694,"x_min":0,"x_max":0,"o":""},"®":{"ha":693,"x_min":99,"x_max":642,"o":"m 257 572 l 300 572 l 300 707 l 404 707 q 442 687 432 704 q 451 642 451 669 l 451 614 q 457 572 451 585 l 507 572 l 510 582 q 492 653 493 594 q 456 725 490 713 q 499 800 499 747 q 475 861 499 835 q 411 888 451 888 l 257 888 l 257 572 m 300 854 l 300 743 l 411 743 q 444 758 432 742 q 456 797 456 774 q 442 840 456 822 q 404 854 429 857 l 300 854 m 132 731 q 206 551 132 617 q 371 492 272 492 q 533 550 468 492 q 608 731 608 617 q 535 910 608 843 q 371 969 468 969 q 207 910 275 969 q 132 731 132 843 m 99 731 q 183 528 99 603 q 371 460 260 460 q 557 526 482 460 q 642 731 642 601 q 557 933 642 858 q 371 1001 481 1001 q 183 935 258 1001 q 99 731 99 860 z "},"¯":{"ha":694,"x_min":0,"x_max":0,"o":""},"°":{"ha":694,"x_min":0,"x_max":0,"o":""},"±":{"ha":694,"x_min":0,"x_max":0,"o":""},"²":{"ha":694,"x_min":0,"x_max":0,"o":""},"³":{"ha":694,"x_min":0,"x_max":0,"o":""},"µ":{"ha":694,"x_min":0,"x_max":0,"o":""},"¶":{"ha":749,"x_min":97,"x_max":701,"o":"m 701 886 l 431 886 q 182 807 275 886 q 97 632 97 735 q 179 464 97 532 q 433 388 272 388 l 433 104 l 528 107 l 528 836 l 601 836 l 601 107 l 701 107 l 701 886 m 433 833 q 606 772 542 833 q 664 638 664 717 q 607 500 664 556 q 433 438 543 438 q 261 500 325 438 q 203 638 203 557 q 260 772 203 717 q 433 833 324 833 z "},"·":{"ha":694,"x_min":0,"x_max":0,"o":""},"∙":{"ha":694,"x_min":0,"x_max":0,"o":""},"¹":{"ha":694,"x_min":0,"x_max":0,"o":""},"º":{"ha":597,"x_min":99,"x_max":554,"o":"m 326 779 q 415 743 383 779 q 447 658 447 707 q 418 576 447 608 q 326 539 385 539 q 238 575 269 539 q 206 658 206 611 q 237 744 206 708 q 326 779 268 779 m 326 432 q 497 503 435 432 q 554 658 554 567 q 499 815 554 753 q 326 886 436 886 q 156 815 219 886 q 99 658 99 751 q 156 503 99 567 q 326 432 218 432 m 99 361 l 99 250 l 554 250 l 554 361 l 99 361 z "},"»":{"ha":694,"x_min":0,"x_max":0,"o":""},"¼":{"ha":694,"x_min":0,"x_max":0,"o":""},"½":{"ha":694,"x_min":0,"x_max":0,"o":""},"¾":{"ha":694,"x_min":0,"x_max":0,"o":""},"¿":{"ha":538,"x_min":97,"x_max":499,"o":"m 499 467 l 499 299 q 325 247 389 299 q 267 136 267 201 q 318 37 267 79 q 460 -6 369 -6 l 483 -6 q 499 -4 493 -4 l 499 -176 q 197 -78 308 -176 q 97 142 97 11 q 197 365 97 274 q 499 467 308 467 m 331 706 l 331 535 l 497 535 l 497 706 l 331 706 z "},"À":{"ha":860,"x_min":101,"x_max":806,"o":"m 561 243 l 558 415 l 269 415 l 271 540 q 322 665 271 615 q 451 715 374 715 q 581 662 529 715 q 633 524 633 608 l 633 -176 l 806 -175 l 806 536 q 704 785 806 683 q 454 886 603 886 q 204 785 307 886 q 101 536 101 683 l 101 243 l 561 243 m 396 1229 l 339 1172 l 517 994 l 574 1051 l 396 1229 z "},"Á":{"ha":854,"x_min":101,"x_max":806,"o":"m 561 243 l 558 415 l 269 415 l 271 540 q 322 665 271 615 q 451 715 374 715 q 581 662 529 715 q 633 524 633 608 l 633 -176 l 806 -175 l 806 536 q 704 785 806 683 q 454 886 603 886 q 204 785 307 886 q 101 536 101 683 l 101 243 l 561 243 m 524 1229 l 343 1049 l 397 994 l 578 1175 l 524 1229 z "},"Â":{"ha":854,"x_min":101,"x_max":806,"o":"m 561 243 l 558 415 l 269 415 l 271 540 q 322 665 271 615 q 451 715 374 715 q 581 662 529 715 q 633 524 633 608 l 633 -176 l 806 -175 l 806 536 q 704 785 806 683 q 454 886 603 886 q 204 785 307 886 q 101 536 101 683 l 101 243 l 561 243 m 276 1049 l 329 994 l 457 1122 l 583 994 l 638 1049 l 457 1229 l 276 1049 z "},"Ã":{"ha":854,"x_min":101,"x_max":806,"o":"m 561 243 l 558 415 l 269 415 l 271 540 q 322 665 271 615 q 451 715 374 715 q 581 662 529 715 q 633 524 633 608 l 633 -176 l 806 -175 l 806 536 q 704 785 806 683 q 454 886 603 886 q 204 785 307 886 q 101 536 101 683 l 101 243 l 561 243 m 233 1074 l 279 1028 q 318 1061 300 1051 q 356 1071 336 1071 q 460 1022 372 1071 q 533 1000 500 1000 q 600 1018 567 1000 q 685 1089 639 1040 l 638 1135 q 582 1090 607 1103 q 535 1076 557 1076 q 436 1125 514 1076 q 369 1147 400 1147 q 308 1131 342 1147 q 233 1074 275 1114 z "},"Ä":{"ha":854,"x_min":101,"x_max":806,"o":"m 561 243 l 558 415 l 269 415 l 271 540 q 322 665 271 615 q 451 715 374 715 q 581 662 529 715 q 633 524 633 608 l 633 -176 l 806 -175 l 806 536 q 704 785 806 683 q 454 886 603 886 q 204 785 307 886 q 101 536 101 683 l 101 243 l 561 243 m 229 1165 l 229 999 l 396 999 l 396 1165 l 229 1165 m 517 1165 l 517 999 l 685 999 l 685 1165 l 517 1165 z "},"Å":{"ha":854,"x_min":101,"x_max":806,"o":"m 561 243 l 558 415 l 269 415 l 271 540 q 322 665 271 615 q 451 715 374 715 q 581 662 529 715 q 633 524 633 608 l 633 -176 l 806 -175 l 806 536 q 704 785 806 683 q 454 886 603 886 q 204 785 307 886 q 101 536 101 683 l 101 243 l 561 243 m 356 1058 q 388 981 356 1010 q 457 956 415 956 q 531 983 501 956 q 561 1060 561 1010 q 531 1135 561 1107 q 458 1163 500 1163 q 385 1135 415 1163 q 356 1058 356 1108 m 388 1060 q 408 1005 388 1024 q 458 986 428 986 q 507 1006 486 986 q 528 1060 528 1025 q 508 1113 528 1094 q 458 1132 488 1132 q 408 1114 428 1132 q 388 1060 388 1096 z "},"Æ":{"ha":1139,"x_min":99,"x_max":1090,"o":"m 260 449 l 260 539 q 319 643 272 606 q 428 681 367 681 q 536 644 488 681 q 599 539 585 607 l 599 100 q 672 -78 599 -3 q 849 -164 744 -153 l 1090 -164 l 1090 0 l 882 0 q 790 53 822 13 q 758 143 758 93 q 793 238 758 196 q 889 288 828 279 l 1090 288 l 1090 449 l 865 449 q 790 488 818 454 q 763 565 763 522 q 785 636 763 604 q 849 679 807 668 l 1090 679 l 1090 843 l 849 843 q 744 810 794 836 q 664 742 693 785 q 551 818 613 793 q 425 843 489 843 q 210 762 304 843 q 99 546 117 681 l 99 288 l 535 288 l 535 449 l 260 449 z "},"Ç":{"ha":857,"x_min":99,"x_max":803,"o":"m 803 3 l 803 174 l 536 174 q 347 251 424 174 q 271 444 271 329 q 353 638 271 561 q 567 714 435 714 l 803 714 l 803 886 l 564 886 q 234 758 369 886 q 99 444 99 629 q 235 131 99 258 q 568 3 371 3 l 803 3 m 619 -14 l 619 0 l 565 0 l 565 -31 q 614 -78 597 -50 q 631 -132 631 -106 q 615 -181 631 -161 q 574 -201 599 -201 q 546 -194 558 -201 l 525 -235 q 576 -246 556 -246 q 654 -210 625 -246 q 683 -124 683 -174 q 667 -60 683 -90 q 619 -14 651 -29 z "},"È":{"ha":857,"x_min":97,"x_max":803,"o":"m 803 -175 l 803 0 l 417 -4 q 310 40 353 -4 q 268 149 268 83 q 311 256 268 211 q 417 300 354 300 l 803 299 l 803 471 l 389 471 q 303 506 339 471 q 268 593 268 542 q 304 681 268 644 q 390 717 340 717 l 803 717 l 803 886 l 446 886 q 230 831 324 886 q 106 683 136 775 q 97 625 97 654 q 149 486 97 549 q 296 386 200 424 q 150 278 203 349 q 97 119 97 207 q 106 54 97 88 q 228 -112 133 -47 q 449 -176 324 -176 l 803 -175 m 444 1229 l 388 1172 l 565 994 l 622 1051 l 444 1229 z "},"É":{"ha":857,"x_min":97,"x_max":803,"o":"m 803 -175 l 803 0 l 417 -4 q 310 40 353 -4 q 268 149 268 83 q 311 256 268 211 q 417 300 354 300 l 803 299 l 803 471 l 389 471 q 303 506 339 471 q 268 593 268 542 q 304 681 268 644 q 390 717 340 717 l 803 717 l 803 886 l 446 886 q 230 831 324 886 q 106 683 136 775 q 97 625 97 654 q 149 486 97 549 q 296 386 200 424 q 150 278 203 349 q 97 119 97 207 q 106 54 97 88 q 228 -112 133 -47 q 449 -176 324 -176 l 803 -175 m 565 1229 l 385 1049 l 439 994 l 619 1175 l 565 1229 z "},"Ê":{"ha":857,"x_min":97,"x_max":803,"o":"m 803 -175 l 803 0 l 417 -4 q 310 40 353 -4 q 268 149 268 83 q 311 256 268 211 q 417 300 354 300 l 803 299 l 803 471 l 389 471 q 303 506 339 471 q 268 593 268 542 q 304 681 268 644 q 390 717 340 717 l 803 717 l 803 886 l 446 886 q 230 831 324 886 q 106 683 136 775 q 97 625 97 654 q 149 486 97 549 q 296 386 200 424 q 150 278 203 349 q 97 119 97 207 q 106 54 97 88 q 228 -112 133 -47 q 449 -176 324 -176 l 803 -175 m 325 1049 l 378 994 l 506 1122 l 632 994 l 686 1049 l 506 1229 l 325 1049 z "},"Ë":{"ha":857,"x_min":97,"x_max":803,"o":"m 803 -175 l 803 0 l 417 -4 q 310 40 353 -4 q 268 149 268 83 q 311 256 268 211 q 417 300 354 300 l 803 299 l 803 471 l 389 471 q 303 506 339 471 q 268 593 268 542 q 304 681 268 644 q 390 717 340 717 l 803 717 l 803 886 l 446 886 q 230 831 324 886 q 106 683 136 775 q 97 625 97 654 q 149 486 97 549 q 296 386 200 424 q 150 278 203 349 q 97 119 97 207 q 106 54 97 88 q 228 -112 133 -47 q 449 -176 324 -176 l 803 -175 m 278 1165 l 278 999 l 444 999 l 444 1165 l 278 1165 m 565 1165 l 565 999 l 733 999 l 733 1165 l 565 1165 z "},"Ì":{"ha":299,"x_min":75,"x_max":310,"o":"m 99 3 l 272 3 l 272 886 l 100 886 l 99 3 m 132 1229 l 75 1172 l 253 994 l 310 1051 l 132 1229 z "},"Í":{"ha":299,"x_min":72,"x_max":307,"o":"m 99 3 l 272 3 l 272 886 l 100 886 l 99 3 m 253 1229 l 72 1049 l 126 994 l 307 1175 l 253 1229 z "},"Î":{"ha":299,"x_min":13,"x_max":374,"o":"m 99 3 l 272 3 l 272 886 l 100 886 l 99 3 m 13 1049 l 65 994 l 193 1122 l 319 994 l 374 1049 l 193 1229 l 13 1049 z "},"Ï":{"ha":299,"x_min":-35,"x_max":421,"o":"m 99 3 l 272 3 l 272 886 l 100 886 l 99 3 m -35 1165 l -35 999 l 132 999 l 132 1165 l -35 1165 m 253 1165 l 253 999 l 421 999 l 421 1165 l 253 1165 z "},"Ð":{"ha":694,"x_min":0,"x_max":0,"o":""},"Ñ":{"ha":857,"x_min":99,"x_max":803,"o":"m 99 3 l 271 3 l 271 714 l 507 714 q 595 680 560 714 q 631 596 631 646 l 628 3 l 803 3 l 803 599 q 718 803 803 719 q 508 886 633 886 l 100 886 l 99 3 m 226 1074 l 272 1028 q 311 1061 293 1051 q 349 1071 329 1071 q 453 1022 365 1071 q 526 1000 493 1000 q 593 1018 560 1000 q 678 1089 632 1040 l 631 1135 q 575 1090 600 1103 q 528 1076 550 1076 q 429 1125 507 1076 q 363 1147 393 1147 q 301 1131 335 1147 q 226 1074 268 1114 z "},"Ò":{"ha":1047,"x_min":100,"x_max":985,"o":"m 985 444 q 858 759 985 631 q 543 888 731 888 q 228 760 356 888 q 100 444 100 632 q 228 131 100 258 q 543 3 356 3 q 857 131 729 3 q 985 444 985 258 m 808 449 q 733 252 808 331 q 543 174 657 174 q 350 251 428 174 q 272 444 272 329 q 350 638 272 560 q 543 715 428 715 q 732 638 656 715 q 808 449 808 560 m 486 1229 l 429 1172 l 607 994 l 664 1051 l 486 1229 z "},"Ó":{"ha":1047,"x_min":100,"x_max":985,"o":"m 985 444 q 858 759 985 631 q 543 888 731 888 q 228 760 356 888 q 100 444 100 632 q 228 131 100 258 q 543 3 356 3 q 857 131 729 3 q 985 444 985 258 m 808 449 q 733 252 808 331 q 543 174 657 174 q 350 251 428 174 q 272 444 272 329 q 350 638 272 560 q 543 715 428 715 q 732 638 656 715 q 808 449 808 560 m 607 1229 l 426 1049 l 481 994 l 661 1175 l 607 1229 z "},"Ô":{"ha":1047,"x_min":100,"x_max":985,"o":"m 985 444 q 858 759 985 631 q 543 888 731 888 q 228 760 356 888 q 100 444 100 632 q 228 131 100 258 q 543 3 356 3 q 857 131 729 3 q 985 444 985 258 m 808 449 q 733 252 808 331 q 543 174 657 174 q 350 251 428 174 q 272 444 272 329 q 350 638 272 560 q 543 715 428 715 q 732 638 656 715 q 808 449 808 560 m 367 1049 l 419 994 l 547 1122 l 674 994 l 728 1049 l 547 1229 l 367 1049 z "},"Õ":{"ha":1047,"x_min":100,"x_max":985,"o":"m 985 444 q 858 759 985 631 q 543 888 731 888 q 228 760 356 888 q 100 444 100 632 q 228 131 100 258 q 543 3 356 3 q 857 131 729 3 q 985 444 985 258 m 808 449 q 733 252 808 331 q 543 174 657 174 q 350 251 428 174 q 272 444 272 329 q 350 638 272 560 q 543 715 428 715 q 732 638 656 715 q 808 449 808 560 m 317 1074 l 363 1028 q 401 1061 383 1051 q 439 1071 419 1071 q 543 1022 456 1071 q 617 1000 583 1000 q 683 1018 650 1000 q 768 1089 722 1040 l 721 1135 q 665 1090 690 1103 q 618 1076 640 1076 q 519 1125 597 1076 q 453 1147 483 1147 q 392 1131 425 1147 q 317 1074 358 1114 z "},"Ö":{"ha":1047,"x_min":100,"x_max":985,"o":"m 985 444 q 858 759 985 631 q 543 888 731 888 q 228 760 356 888 q 100 444 100 632 q 228 131 100 258 q 543 3 356 3 q 857 131 729 3 q 985 444 985 258 m 808 449 q 733 252 808 331 q 543 174 657 174 q 350 251 428 174 q 272 444 272 329 q 350 638 272 560 q 543 715 428 715 q 732 638 656 715 q 808 449 808 560 m 326 1165 l 326 999 l 493 999 l 493 1165 l 326 1165 m 614 1165 l 614 999 l 782 999 l 782 1165 l 614 1165 z "},"×":{"ha":694,"x_min":0,"x_max":0,"o":""},"Ø":{"ha":694,"x_min":0,"x_max":0,"o":""},"Ù":{"ha":864,"x_min":103,"x_max":810,"o":"m 808 886 l 636 886 l 636 174 l 453 174 q 326 227 378 174 q 274 358 274 281 l 274 364 l 274 886 l 103 886 l 103 358 q 204 106 103 208 q 451 3 306 3 l 483 3 l 810 3 l 808 886 m 396 1229 l 339 1172 l 517 994 l 574 1051 l 396 1229 z "},"Ú":{"ha":864,"x_min":103,"x_max":810,"o":"m 808 886 l 636 886 l 636 174 l 453 174 q 326 227 378 174 q 274 358 274 281 l 274 364 l 274 886 l 103 886 l 103 358 q 204 106 103 208 q 451 3 306 3 l 483 3 l 810 3 l 808 886 m 517 1229 l 336 1049 l 390 994 l 571 1175 l 517 1229 z "},"Û":{"ha":864,"x_min":103,"x_max":810,"o":"m 808 886 l 636 886 l 636 174 l 453 174 q 326 227 378 174 q 274 358 274 281 l 274 364 l 274 886 l 103 886 l 103 358 q 204 106 103 208 q 451 3 306 3 l 483 3 l 810 3 l 808 886 m 276 1049 l 329 994 l 457 1122 l 583 994 l 638 1049 l 457 1229 l 276 1049 z "},"Ü":{"ha":864,"x_min":103,"x_max":810,"o":"m 808 886 l 636 886 l 636 174 l 453 174 q 326 227 378 174 q 274 358 274 281 l 274 364 l 274 886 l 103 886 l 103 358 q 204 106 103 208 q 451 3 306 3 l 483 3 l 810 3 l 808 886 m 229 1165 l 229 999 l 396 999 l 396 1165 l 229 1165 m 517 1165 l 517 999 l 685 999 l 685 1165 l 517 1165 z "},"Ý":{"ha":1054,"x_min":96,"x_max":993,"o":"m 96 886 l 272 886 l 594 86 l 551 3 l 456 3 l 96 886 m 618 -175 l 456 -176 q 807 582 807 444 q 703 697 807 672 q 397 714 633 714 l 397 886 q 713 878 622 886 q 919 822 857 864 q 993 668 993 772 q 904 352 993 554 q 618 -175 815 150 m 614 1229 l 433 1049 l 488 994 l 668 1175 l 614 1229 z "},"Þ":{"ha":694,"x_min":0,"x_max":0,"o":""},"ß":{"ha":889,"x_min":99,"x_max":835,"o":"m 99 3 l 263 3 l 264 567 q 326 646 269 614 q 464 678 382 678 q 606 644 551 678 q 661 558 661 610 q 597 478 654 510 q 457 447 540 447 l 325 446 l 325 282 l 518 282 q 622 242 581 282 q 664 139 664 201 q 622 37 664 78 q 518 -4 579 -4 l 267 -4 l 269 -169 l 467 -169 q 679 -117 586 -169 q 813 31 772 -64 q 835 132 835 79 q 689 363 835 272 q 828 571 828 443 q 793 686 828 631 q 660 800 749 758 q 464 842 571 842 q 433 842 446 842 q 389 836 419 842 q 181 735 254 814 q 100 510 100 650 l 99 3 z "},"à":{"ha":856,"x_min":100,"x_max":803,"o":"m 632 3 l 803 3 l 803 713 l 447 713 q 201 608 303 713 q 100 356 100 504 q 200 104 100 206 q 449 3 300 3 l 568 3 l 568 174 l 447 174 q 322 226 374 174 q 271 356 271 279 q 322 485 271 433 q 447 538 372 538 l 633 536 l 632 3 m 444 1049 l 388 992 l 565 814 l 622 871 l 444 1049 z "},"á":{"ha":856,"x_min":100,"x_max":803,"o":"m 632 3 l 803 3 l 803 713 l 447 713 q 201 608 303 713 q 100 356 100 504 q 200 104 100 206 q 449 3 300 3 l 568 3 l 568 174 l 447 174 q 322 226 374 174 q 271 356 271 279 q 322 485 271 433 q 447 538 372 538 l 633 536 l 632 3 m 565 1049 l 385 868 l 439 814 l 619 994 l 565 1049 z "},"â":{"ha":856,"x_min":100,"x_max":803,"o":"m 632 3 l 803 3 l 803 713 l 447 713 q 201 608 303 713 q 100 356 100 504 q 200 104 100 206 q 449 3 300 3 l 568 3 l 568 174 l 447 174 q 322 226 374 174 q 271 356 271 279 q 322 485 271 433 q 447 538 372 538 l 633 536 l 632 3 m 325 868 l 378 814 l 506 942 l 632 814 l 686 868 l 506 1049 l 325 868 z "},"ã":{"ha":856,"x_min":100,"x_max":803,"o":"m 632 3 l 803 3 l 803 713 l 447 713 q 201 608 303 713 q 100 356 100 504 q 200 104 100 206 q 449 3 300 3 l 568 3 l 568 174 l 447 174 q 322 226 374 174 q 271 356 271 279 q 322 485 271 433 q 447 538 372 538 l 633 536 l 632 3 m 275 893 l 321 847 q 360 881 342 871 q 397 890 378 890 q 501 842 414 890 q 575 819 542 819 q 642 838 608 819 q 726 908 681 860 l 679 954 q 624 909 649 922 q 576 896 599 896 q 478 944 556 896 q 411 967 442 967 q 350 950 383 967 q 275 893 317 933 z "},"ä":{"ha":856,"x_min":100,"x_max":803,"o":"m 632 3 l 803 3 l 803 713 l 447 713 q 201 608 303 713 q 100 356 100 504 q 200 104 100 206 q 449 3 300 3 l 568 3 l 568 174 l 447 174 q 322 226 374 174 q 271 356 271 279 q 322 485 271 433 q 447 538 372 538 l 633 536 l 632 3 m 278 985 l 278 818 l 444 818 l 444 985 l 278 985 m 565 985 l 565 818 l 733 818 l 733 985 l 565 985 z "},"å":{"ha":856,"x_min":100,"x_max":803,"o":"m 632 3 l 803 3 l 803 713 l 447 713 q 201 608 303 713 q 100 356 100 504 q 200 104 100 206 q 449 3 300 3 l 568 3 l 568 174 l 447 174 q 322 226 374 174 q 271 356 271 279 q 322 485 271 433 q 447 538 372 538 l 633 536 l 632 3 m 418 906 q 450 828 418 857 q 519 803 478 803 q 594 830 564 803 q 624 907 624 857 q 593 982 624 954 q 521 1010 563 1010 q 448 983 478 1010 q 418 906 418 956 m 450 907 q 470 852 450 871 q 521 833 490 833 q 569 853 549 833 q 590 907 590 872 q 570 960 590 942 q 521 979 550 979 q 470 961 490 979 q 450 907 450 943 z "},"æ":{"ha":1333,"x_min":97,"x_max":1257,"o":"m 910 3 l 1254 3 l 1254 164 l 910 164 q 797 222 838 172 q 756 336 756 272 q 793 447 756 401 q 910 508 836 500 l 1040 508 l 926 228 l 1090 228 l 1257 672 l 407 672 q 190 569 282 672 q 97 331 97 465 q 197 92 97 185 q 426 3 292 3 q 549 26 492 3 q 660 99 607 49 q 772 28 703 53 q 910 3 840 3 m 594 335 l 594 508 l 417 508 q 302 455 349 508 q 256 333 256 401 q 315 208 264 254 q 426 167 363 167 q 538 210 489 167 q 594 335 588 254 z "},"ç":{"ha":671,"x_min":99,"x_max":626,"o":"m 625 3 l 625 176 l 450 176 q 322 228 374 176 q 271 356 271 279 q 322 485 271 433 q 447 538 372 538 l 626 536 l 625 713 l 447 713 q 200 608 301 713 q 99 356 99 504 q 199 105 99 207 q 449 3 300 3 l 625 3 m 485 -14 l 485 0 l 431 0 l 431 -31 q 479 -78 463 -50 q 496 -132 496 -106 q 480 -181 496 -161 q 439 -201 464 -201 q 411 -194 424 -201 l 390 -235 q 442 -246 421 -246 q 519 -210 490 -246 q 549 -124 549 -174 q 533 -60 549 -90 q 485 -14 517 -29 z "},"è":{"ha":856,"x_min":99,"x_max":804,"o":"m 803 3 l 804 174 l 447 174 q 322 226 374 174 q 271 356 271 279 q 322 485 271 433 q 447 538 372 538 l 626 536 l 454 239 l 626 239 l 803 539 l 803 713 l 449 710 q 200 607 301 710 q 99 356 99 504 q 199 105 99 207 q 449 3 300 3 l 803 3 m 486 1049 l 429 992 l 607 814 l 664 871 l 486 1049 z "},"é":{"ha":856,"x_min":99,"x_max":804,"o":"m 803 3 l 804 174 l 447 174 q 322 226 374 174 q 271 356 271 279 q 322 485 271 433 q 447 538 372 538 l 626 536 l 454 239 l 626 239 l 803 539 l 803 713 l 449 710 q 200 607 301 710 q 99 356 99 504 q 199 105 99 207 q 449 3 300 3 l 803 3 m 607 1049 l 426 868 l 481 814 l 661 994 l 607 1049 z "},"ê":{"ha":856,"x_min":99,"x_max":804,"o":"m 803 3 l 804 174 l 447 174 q 322 226 374 174 q 271 356 271 279 q 322 485 271 433 q 447 538 372 538 l 626 536 l 454 239 l 626 239 l 803 539 l 803 713 l 449 710 q 200 607 301 710 q 99 356 99 504 q 199 105 99 207 q 449 3 300 3 l 803 3 m 367 868 l 419 814 l 547 942 l 674 814 l 728 868 l 547 1049 l 367 868 z "},"ë":{"ha":856,"x_min":99,"x_max":804,"o":"m 803 3 l 804 174 l 447 174 q 322 226 374 174 q 271 356 271 279 q 322 485 271 433 q 447 538 372 538 l 626 536 l 454 239 l 626 239 l 803 539 l 803 713 l 449 710 q 200 607 301 710 q 99 356 99 504 q 199 105 99 207 q 449 3 300 3 l 803 3 m 319 985 l 319 818 l 486 818 l 486 985 l 319 985 m 607 985 l 607 818 l 775 818 l 775 985 l 607 985 z "},"ì":{"ha":299,"x_min":75,"x_max":310,"o":"m 99 3 l 272 3 l 272 649 l 100 649 l 99 3 m 132 986 l 75 929 l 253 751 l 310 808 l 132 986 z "},"í":{"ha":299,"x_min":72,"x_max":307,"o":"m 99 3 l 272 3 l 272 649 l 100 649 l 99 3 m 253 986 l 72 806 l 126 751 l 307 932 l 253 986 z "},"î":{"ha":299,"x_min":13,"x_max":374,"o":"m 99 3 l 272 3 l 272 649 l 100 649 l 99 3 m 13 806 l 65 751 l 193 879 l 319 751 l 374 806 l 193 986 l 13 806 z "},"ï":{"ha":299,"x_min":-35,"x_max":421,"o":"m 99 3 l 272 3 l 272 649 l 100 649 l 99 3 m -35 922 l -35 756 l 132 756 l 132 922 l -35 922 m 253 922 l 253 756 l 421 756 l 421 922 l 253 922 z "},"ð":{"ha":694,"x_min":0,"x_max":0,"o":""},"ñ":{"ha":803,"x_min":99,"x_max":749,"o":"m 99 3 l 274 3 l 274 536 l 392 536 q 522 485 468 536 q 575 361 575 435 l 576 3 l 749 3 l 749 361 q 646 607 749 506 q 394 708 543 708 l 99 710 l 99 3 m 178 865 l 224 819 q 263 853 244 843 q 300 863 281 863 q 404 814 317 863 q 478 792 444 792 q 544 810 511 792 q 629 881 583 832 l 582 926 q 526 881 551 894 q 479 868 501 868 q 381 917 458 868 q 314 939 344 939 q 253 922 286 939 q 178 865 219 906 z "},"ò":{"ha":856,"x_min":96,"x_max":804,"o":"m 804 356 q 701 607 804 504 q 450 710 599 710 q 199 607 301 710 q 96 356 96 504 q 198 105 96 207 q 450 3 300 3 q 701 104 599 3 q 804 356 804 206 m 628 363 l 632 356 q 580 226 632 278 q 450 174 528 174 q 321 226 374 174 q 268 356 268 279 q 321 485 268 432 q 450 538 374 538 q 577 487 526 538 q 628 363 628 436 m 396 1049 l 339 992 l 517 814 l 574 871 l 396 1049 z "},"ó":{"ha":856,"x_min":96,"x_max":804,"o":"m 804 356 q 701 607 804 504 q 450 710 599 710 q 199 607 301 710 q 96 356 96 504 q 198 105 96 207 q 450 3 300 3 q 701 104 599 3 q 804 356 804 206 m 628 363 l 632 356 q 580 226 632 278 q 450 174 528 174 q 321 226 374 174 q 268 356 268 279 q 321 485 268 432 q 450 538 374 538 q 577 487 526 538 q 628 363 628 436 m 517 1049 l 336 868 l 390 814 l 571 994 l 517 1049 z "},"ô":{"ha":856,"x_min":96,"x_max":804,"o":"m 804 356 q 701 607 804 504 q 450 710 599 710 q 199 607 301 710 q 96 356 96 504 q 198 105 96 207 q 450 3 300 3 q 701 104 599 3 q 804 356 804 206 m 628 363 l 632 356 q 580 226 632 278 q 450 174 528 174 q 321 226 374 174 q 268 356 268 279 q 321 485 268 432 q 450 538 374 538 q 577 487 526 538 q 628 363 628 436 m 276 868 l 329 814 l 457 942 l 583 814 l 638 868 l 457 1049 l 276 868 z "},"õ":{"ha":856,"x_min":96,"x_max":804,"o":"m 804 356 q 701 607 804 504 q 450 710 599 710 q 199 607 301 710 q 96 356 96 504 q 198 105 96 207 q 450 3 300 3 q 701 104 599 3 q 804 356 804 206 m 628 363 l 632 356 q 580 226 632 278 q 450 174 528 174 q 321 226 374 174 q 268 356 268 279 q 321 485 268 432 q 450 538 374 538 q 577 487 526 538 q 628 363 628 436 m 226 893 l 272 847 q 311 881 293 871 q 349 890 329 890 q 453 842 365 890 q 526 819 493 819 q 593 838 560 819 q 678 908 632 860 l 631 954 q 575 909 600 922 q 528 896 550 896 q 429 944 507 896 q 363 967 393 967 q 301 950 335 967 q 226 893 268 933 z "},"ö":{"ha":856,"x_min":96,"x_max":804,"o":"m 804 356 q 701 607 804 504 q 450 710 599 710 q 199 607 301 710 q 96 356 96 504 q 198 105 96 207 q 450 3 300 3 q 701 104 599 3 q 804 356 804 206 m 628 363 l 632 356 q 580 226 632 278 q 450 174 528 174 q 321 226 374 174 q 268 356 268 279 q 321 485 268 432 q 450 538 374 538 q 577 487 526 538 q 628 363 628 436 m 229 985 l 229 818 l 396 818 l 396 985 l 229 985 m 517 985 l 517 818 l 685 818 l 685 985 l 517 985 z "},"÷":{"ha":694,"x_min":0,"x_max":0,"o":""},"ø":{"ha":694,"x_min":0,"x_max":0,"o":""},"ù":{"ha":799,"x_min":103,"x_max":749,"o":"m 749 710 l 575 708 l 575 174 l 393 174 q 310 210 344 174 q 275 299 275 246 l 274 708 l 103 708 l 103 299 q 187 88 103 174 q 393 3 271 3 l 749 3 l 749 710 m 368 1021 l 311 964 l 489 786 l 546 843 l 368 1021 z "},"ú":{"ha":799,"x_min":103,"x_max":749,"o":"m 749 710 l 575 708 l 575 174 l 393 174 q 310 210 344 174 q 275 299 275 246 l 274 708 l 103 708 l 103 299 q 187 88 103 174 q 393 3 271 3 l 749 3 l 749 710 m 489 1021 l 308 840 l 363 786 l 543 967 l 489 1021 z "},"û":{"ha":799,"x_min":103,"x_max":749,"o":"m 749 710 l 575 708 l 575 174 l 393 174 q 310 210 344 174 q 275 299 275 246 l 274 708 l 103 708 l 103 299 q 187 88 103 174 q 393 3 271 3 l 749 3 l 749 710 m 249 840 l 301 786 l 429 914 l 556 786 l 610 840 l 429 1021 l 249 840 z "},"ü":{"ha":799,"x_min":103,"x_max":749,"o":"m 749 710 l 575 708 l 575 174 l 393 174 q 310 210 344 174 q 275 299 275 246 l 274 708 l 103 708 l 103 299 q 187 88 103 174 q 393 3 271 3 l 749 3 l 749 710 m 201 957 l 201 790 l 368 790 l 368 957 l 201 957 m 489 957 l 489 790 l 657 790 l 657 957 l 489 957 z "},"ý":{"ha":928,"x_min":99,"x_max":871,"o":"m 267 711 l 99 713 l 338 3 l 490 3 l 507 24 l 267 711 m 394 -169 l 568 -168 q 871 522 871 364 q 762 670 871 632 q 397 708 653 708 l 397 536 q 563 533 536 536 q 681 436 681 521 q 615 228 681 367 q 394 -169 549 90 m 538 1021 l 357 840 l 411 786 l 592 967 l 538 1021 z "},"þ":{"ha":694,"x_min":0,"x_max":0,"o":""},"ÿ":{"ha":928,"x_min":99,"x_max":871,"o":"m 267 711 l 99 713 l 338 3 l 490 3 l 507 24 l 267 711 m 394 -169 l 568 -168 q 871 522 871 364 q 762 670 871 632 q 397 708 653 708 l 397 536 q 563 533 536 536 q 681 436 681 521 q 615 228 681 367 q 394 -169 549 90 m 250 957 l 250 790 l 417 790 l 417 957 l 250 957 m 538 957 l 538 790 l 706 790 l 706 957 l 538 957 z "},"Ł":{"ha":694,"x_min":0,"x_max":0,"o":""},"ł":{"ha":694,"x_min":0,"x_max":0,"o":""},"∕":{"ha":806,"x_min":92,"x_max":751,"o":"m 751 639 l 706 682 l 92 69 l 136 24 l 751 639 z "},"":{"ha":717,"x_min":99,"x_max":668,"o":"m 99 3 l 272 3 l 272 299 l 440 301 l 440 472 l 272 471 l 272 596 q 305 678 272 646 q 390 717 338 711 l 668 717 l 668 886 l 390 886 q 184 802 268 886 q 100 596 100 718 l 99 3 m 497 660 l 497 301 l 668 301 l 668 660 l 497 660 z "},"":{"ha":717,"x_min":99,"x_max":668,"o":"m 99 3 l 272 3 l 272 299 l 440 301 l 440 472 l 272 471 l 272 596 q 305 678 272 646 q 390 717 338 711 l 497 717 l 497 3 l 668 3 l 668 886 l 390 886 q 184 802 268 886 q 100 596 100 718 l 99 3 z "},"Ž":{"ha":921,"x_min":99,"x_max":865,"o":"m 99 886 l 100 714 l 651 714 l 100 174 l 100 3 l 865 3 l 865 174 l 301 174 l 865 714 l 865 886 l 99 886 m 350 1229 l 297 1175 l 478 994 l 658 1175 l 604 1229 l 478 1101 l 350 1229 z "},"ž":{"ha":799,"x_min":99,"x_max":747,"o":"m 99 710 l 100 536 l 521 536 l 100 174 l 100 3 l 747 3 l 747 174 l 314 174 l 747 536 l 747 708 l 99 710 m 301 1021 l 249 967 l 429 786 l 610 967 l 556 1021 l 429 893 l 301 1021 z "}}}
